<svg width="48" height="48" viewBox="0 0 48 48" fill="none" xmlns="http://www.w3.org/2000/svg">
<path d="M38.6182 7L45.2168 20.1973L40.127 25.2871L39.4453 24.832L35.2061 22.0049L35.5059 25.0127C34.8267 25.0427 34.1642 25.1355 33.5225 25.2832L33.0049 20.0996L32.7949 17.9941L34.5547 19.168L39.873 22.7129L42.7832 19.8027L37.3906 9.01562C34.8086 9.14043 32.2786 10.0502 30.3643 11.5391C28.3103 13.1366 27 15.3642 27 18V19H10.9131L9.26758 37.1025L9.26074 37.2832C9.26315 37.4637 9.29373 37.6436 9.35156 37.8154C9.42868 38.0444 9.55291 38.2552 9.71582 38.4336C9.87864 38.6119 10.077 38.754 10.2979 38.8516C10.4636 38.9247 10.6399 38.9714 10.8193 38.9902L11 39H11.292C11.8915 39 12.4772 38.8204 12.9736 38.4844C13.4081 38.1903 13.7567 37.7881 13.9863 37.3193L14.0771 37.1143L16.0654 32.1426C16.4367 31.2148 17.0778 30.4195 17.9053 29.8594C18.6294 29.3693 19.4673 29.0785 20.335 29.0137L20.708 29H23.292C24.2911 28.9999 25.2673 29.2994 26.0947 29.8594C26.277 29.9827 26.45 30.1177 26.6133 30.2627C26.2431 30.8671 25.929 31.5096 25.6797 32.1836C25.4833 31.9254 25.2452 31.6994 24.9736 31.5156C24.4772 31.1796 23.8915 31 23.292 31H20.708L20.4844 31.0088C19.9637 31.0477 19.4609 31.2216 19.0264 31.5156C18.5299 31.8517 18.1456 32.3291 17.9229 32.8857L15.9346 37.8574L15.7832 38.1992C15.4006 38.9806 14.8188 39.6505 14.0947 40.1406C13.2673 40.7006 12.2911 41.0001 11.292 41H11L10.8057 40.9951C10.3527 40.9715 9.90723 40.8652 9.49121 40.6816C9.01584 40.4719 8.58861 40.165 8.23828 39.7812C7.88818 39.3977 7.62173 38.9453 7.45605 38.4531C7.31099 38.0221 7.24611 37.5686 7.26367 37.1152L7.27637 36.9219L8.89355 19.125C7.98094 19.3322 7.13711 19.7926 6.46484 20.4648C5.52716 21.4025 5 22.6739 5 24V29H3V24C3 22.1435 3.73705 20.3626 5.0498 19.0498C6.36256 17.7371 8.14349 17 10 17H25.0518C25.3499 14.0853 26.9367 11.6714 29.1357 9.96094C31.5709 8.06692 34.7901 7 38 7H38.6182Z" fill="white"/>
<path d="M28 36C28 37.0506 28.2069 38.0909 28.609 39.0615C29.011 40.0321 29.6003 40.914 30.3431 41.6569M28 36C28 34.9494 28.2069 33.9091 28.609 32.9385C29.011 31.9679 29.6003 31.086 30.3431 30.3431M28 36H31.5556M30.3431 41.6569C31.086 42.3997 31.9679 42.989 32.9385 43.391C33.9091 43.7931 34.9494 44 36 44M30.3431 41.6569L32.8573 39.1427M36 44C37.0506 44 38.0909 43.7931 39.0615 43.391C40.0321 42.989 40.914 42.3997 41.6569 41.6569M36 44V40.4444M41.6569 41.6569C42.3997 40.914 42.989 40.0321 43.391 39.0615C43.7931 38.0909 44 37.0506 44 36M41.6569 41.6569L39.1427 39.1427M44 36C44 34.9494 43.7931 33.9091 43.391 32.9385C42.989 31.9679 42.3997 31.086 41.6569 30.3431M44 36H40.4444M41.6569 30.3431C40.914 29.6003 40.0321 29.011 39.0615 28.609C38.0909 28.2069 37.0506 28 36 28M41.6569 30.3431L39.1427 32.8573M36 28C34.9494 28 33.9091 28.2069 32.9385 28.609C31.9679 29.011 31.086 29.6003 30.3431 30.3431M36 28V31.5556M30.3431 30.3431L32.8573 32.8573M31.5556 36C31.5556 37.1787 32.0238 38.3092 32.8573 39.1427M31.5556 36C31.5556 34.8213 32.0238 33.6908 32.8573 32.8573M32.8573 39.1427C33.6908 39.9762 34.8213 40.4444 36 40.4444M36 40.4444C37.1787 40.4444 38.3092 39.9762 39.1427 39.1427M39.1427 39.1427C39.9762 38.3092 40.4444 37.1787 40.4444 36M40.4444 36C40.4444 34.8213 39.9762 33.6908 39.1427 32.8573M39.1427 32.8573C38.3092 32.0238 37.1787 31.5556 36 31.5556M36 31.5556C34.8213 31.5556 33.6908 32.0238 32.8573 32.8573" stroke="#DC251D" stroke-width="2" stroke-linecap="square"/>
</svg>
