<svg width="48" height="48" viewBox="0 0 48 48" fill="none" xmlns="http://www.w3.org/2000/svg">
<path d="M18 10H14C12.9391 10 11.9217 10.4214 11.1716 11.1716C10.4214 11.9217 10 12.9391 10 14V38C10 39.0609 10.4214 40.0783 11.1716 40.8284C11.9217 41.5786 12.9391 42 14 42H34C35.0609 42 36.0783 41.5786 36.8284 40.8284C37.5786 40.0783 38 39.0609 38 38V14C38 12.9391 37.5786 11.9217 36.8284 11.1716C36.0783 10.4214 35.0609 10 34 10H30M18 10C18 8.93913 18.4214 7.92172 19.1716 7.17157C19.9217 6.42143 20.9391 6 22 6H26C27.0609 6 28.0783 6.42143 28.8284 7.17157C29.5786 7.92172 30 8.93913 30 10M18 10C18 11.0609 18.4214 12.0783 19.1716 12.8284C19.9217 13.5786 20.9391 14 22 14H26C27.0609 14 28.0783 13.5786 28.8284 12.8284C29.5786 12.0783 30 11.0609 30 10M18 34V26M24 34V32M30 34V30" stroke="white" stroke-width="2" stroke-linecap="square"/>
<path d="M18 34V26M24 34V32M30 34V30" stroke="#DC251D" stroke-width="2" stroke-linecap="square"/>
</svg>
