<svg width="48" height="48" viewBox="0 0 48 48" fill="none" xmlns="http://www.w3.org/2000/svg">
<path d="M30 8H32C32.5304 8 33.0391 8.21071 33.4142 8.58579C33.7893 8.96086 34 9.46957 34 10V17M40 12C40.528 12.224 41.04 12.434 41.536 12.63C42.0242 12.8372 42.4102 13.2298 42.609 13.7215C42.8077 14.2132 42.8031 14.7637 42.596 15.252L38 26M7.2082 14.3938L21.4842 8.17578C21.7198 8.07481 21.9732 8.02203 22.2295 8.02054C22.4858 8.01905 22.7398 8.0689 22.9765 8.16713C23.2132 8.26536 23.4279 8.40999 23.6078 8.5925C23.7877 8.775 23.9293 8.99169 24.0242 9.22978L33.8722 33.0338C34.0769 33.5165 34.0839 34.0602 33.8916 34.548C33.6993 35.0358 33.3232 35.4286 32.8442 35.6418L18.5702 41.8598C18.3345 41.9611 18.0809 42.0141 17.8244 42.0157C17.5679 42.0174 17.3137 41.9676 17.0767 41.8694C16.8398 41.7711 16.6249 41.6264 16.4448 41.4437C16.2647 41.261 16.1231 41.0441 16.0282 40.8058L6.1802 16.9998C5.97551 16.5171 5.96855 15.9733 6.16082 15.4855C6.35308 14.9978 6.72921 14.607 7.2082 14.3938Z" stroke="white" stroke-width="2" stroke-linecap="square"/>
<path d="M7.2082 14.3938L21.4842 8.17578C21.7198 8.07481 21.9732 8.02203 22.2295 8.02054C22.4858 8.01905 22.7398 8.0689 22.9765 8.16713C23.2132 8.26536 23.4279 8.40999 23.6078 8.5925C23.7877 8.775 23.9293 8.99169 24.0242 9.22978L33.8722 33.0338C34.0769 33.5165 34.0839 34.0602 33.8916 34.548C33.6993 35.0358 33.3232 35.4286 32.8442 35.6418L18.5702 41.8598C18.3345 41.9611 18.0809 42.0141 17.8244 42.0157C17.5679 42.0174 17.3137 41.9676 17.0767 41.8694C16.8398 41.7711 16.6249 41.6264 16.4448 41.4437C16.2647 41.261 16.1231 41.0441 16.0282 40.8058L6.1802 16.9998C5.97551 16.5171 5.96855 15.9733 6.16082 15.4855C6.35308 14.9978 6.72921 14.607 7.2082 14.3938Z" stroke="#DC251D" stroke-width="2" stroke-linecap="square"/>
</svg>
