<svg width="16" height="16" viewBox="0 0 16 16" fill="none" xmlns="http://www.w3.org/2000/svg">
<g clip-path="url(#clip0_179_3705)">
<path d="M4.68673 0.0559501C3.83553 0.0961101 3.25425 0.23195 2.74609 0.43163C2.22017 0.63659 1.77441 0.91163 1.33089 1.35675C0.887373 1.80187 0.614253 2.24795 0.410733 2.77467C0.213773 3.28395 0.080333 3.86571 0.042733 4.71739C0.00513298 5.56907 -0.00318703 5.84283 0.000972972 8.01531C0.00513297 10.1878 0.014733 10.4601 0.056013 11.3135C0.096653 12.1646 0.232013 12.7457 0.431693 13.254C0.636973 13.7799 0.911693 14.2255 1.35697 14.6692C1.80225 15.1129 2.24801 15.3854 2.77601 15.5892C3.28481 15.7859 3.86673 15.9199 4.71825 15.9572C5.56977 15.9945 5.84385 16.0031 8.01569 15.999C10.1875 15.9948 10.461 15.9852 11.3143 15.9447C12.1675 15.9043 12.7456 15.7679 13.2541 15.5692C13.78 15.3635 14.2259 15.0892 14.6693 14.6438C15.1127 14.1983 15.3856 13.7519 15.589 13.2249C15.7861 12.7161 15.92 12.1342 15.957 11.2833C15.9943 10.4294 16.0031 10.1567 15.9989 7.98459C15.9947 5.81243 15.985 5.54011 15.9445 4.68699C15.904 3.83387 15.7685 3.25451 15.569 2.74587C15.3634 2.21995 15.089 1.77467 14.6439 1.33067C14.1987 0.88667 13.752 0.61387 13.2251 0.41099C12.716 0.21403 12.1344 0.0797901 11.2829 0.0429901C10.4314 0.00619009 10.1573 -0.00324991 7.98465 0.000910089C5.81201 0.00507009 5.54001 0.0143501 4.68673 0.0559501ZM4.78017 14.518C4.00017 14.4841 3.57665 14.3545 3.29441 14.246C2.92065 14.102 2.65441 13.9279 2.37313 13.6494C2.09185 13.3708 1.91905 13.1036 1.77313 12.7307C1.66353 12.4484 1.53153 12.0254 1.49505 11.2454C1.45537 10.4023 1.44705 10.1492 1.44241 8.01339C1.43777 5.87755 1.44593 5.62475 1.48289 4.78139C1.51617 4.00203 1.64657 3.57803 1.75489 3.29595C1.89889 2.92171 2.07233 2.65595 2.35153 2.37483C2.63073 2.09371 2.89713 1.92059 3.27041 1.77467C3.55233 1.66459 3.97537 1.53371 4.75505 1.49659C5.59873 1.45659 5.85153 1.44859 7.98705 1.44395C10.1226 1.43931 10.376 1.44731 11.22 1.48443C11.9994 1.51835 12.4235 1.64747 12.7053 1.75643C13.0792 1.90043 13.3453 2.07339 13.6264 2.35307C13.9075 2.63275 14.0808 2.89819 14.2267 3.27227C14.337 3.55339 14.4679 3.97627 14.5047 4.75643C14.5448 5.60011 14.5539 5.85307 14.5578 7.98843C14.5616 10.1238 14.5541 10.3774 14.5171 11.2204C14.4831 12.0004 14.3538 12.4241 14.2451 12.7067C14.1011 13.0803 13.9275 13.3467 13.6482 13.6276C13.3688 13.9086 13.1027 14.0817 12.7293 14.2276C12.4477 14.3375 12.0242 14.4687 11.2451 14.5059C10.4015 14.5455 10.1487 14.5539 8.01233 14.5585C5.87601 14.5631 5.62401 14.5545 4.78033 14.518M11.3019 3.72427C11.3022 3.91415 11.3589 4.09968 11.4646 4.25738C11.5704 4.41508 11.7206 4.53788 11.8961 4.61023C12.0717 4.68259 12.2647 4.70126 12.4509 4.66388C12.6371 4.62651 12.808 4.53476 12.942 4.40024C13.076 4.26573 13.1671 4.09449 13.2038 3.90819C13.2405 3.72188 13.2212 3.52888 13.1482 3.35359C13.0751 3.1783 12.9518 3.0286 12.7937 2.92341C12.6356 2.81823 12.4499 2.76229 12.26 2.76267C12.0055 2.76318 11.7615 2.86477 11.5819 3.04509C11.4022 3.22542 11.3015 3.46972 11.3019 3.72427ZM3.89233 8.00795C3.89681 10.2767 5.73937 12.1118 8.00769 12.1075C10.276 12.1031 12.1123 10.2607 12.108 7.99195C12.1037 5.72315 10.2607 3.88763 7.99201 3.89211C5.72337 3.89659 3.88801 5.73947 3.89233 8.00795ZM5.33329 8.00507C5.33225 7.47764 5.48763 6.96175 5.77979 6.52263C6.07194 6.08352 6.48775 5.74089 6.97462 5.53809C7.4615 5.33529 7.99759 5.28142 8.51508 5.38329C9.03258 5.48516 9.50824 5.7382 9.88193 6.11041C10.2556 6.48262 10.5105 6.95728 10.6145 7.47436C10.7184 7.99145 10.6666 8.52774 10.4658 9.01542C10.2649 9.5031 9.92391 9.92026 9.48595 10.2142C9.04799 10.508 8.53272 10.6655 8.00529 10.6665C7.65508 10.6672 7.30816 10.599 6.98433 10.4656C6.66051 10.3323 6.36612 10.1364 6.118 9.88927C5.86987 9.64213 5.67286 9.34852 5.53822 9.02523C5.40358 8.70193 5.33394 8.35528 5.33329 8.00507Z" fill="white"/>
</g>
<defs>
<clipPath id="clip0_179_3705">
<rect width="16" height="16" fill="white"/>
</clipPath>
</defs>
</svg>
