<svg width="48" height="48" viewBox="0 0 48 48" fill="none" xmlns="http://www.w3.org/2000/svg">
<path d="M6 42H42M6 14V16C6 17.5913 6.63214 19.1174 7.75736 20.2426C8.88258 21.3679 10.4087 22 12 22C13.5913 22 15.1174 21.3679 16.2426 20.2426C17.3679 19.1174 18 17.5913 18 16M6 14H42M6 14L10 6H38L42 14M18 16V14M18 16C18 17.5913 18.6321 19.1174 19.7574 20.2426C20.8826 21.3679 22.4087 22 24 22C25.5913 22 27.1174 21.3679 28.2426 20.2426C29.3679 19.1174 30 17.5913 30 16M30 16V14M30 16C30 17.5913 30.6321 19.1174 31.7574 20.2426C32.8826 21.3679 34.4087 22 36 22C37.5913 22 39.1174 21.3679 40.2426 20.2426C41.3679 19.1174 42 17.5913 42 16V14M10 42.0002V23M38 42.0002V22.5M18 42V34C18 32.9391 18.4214 31.9217 19.1716 31.1716C19.9217 30.4214 20.9391 30 22 30H26C27.0609 30 28.0783 30.4214 28.8284 31.1716C29.5786 31.9217 30 32.9391 30 34V42" stroke="white" stroke-width="2" stroke-linecap="square"/>
<path d="M6 14V16C6 17.5913 6.63214 19.1174 7.75736 20.2426C8.88258 21.3679 10.4087 22 12 22C13.5913 22 15.1174 21.3679 16.2426 20.2426C17.3679 19.1174 18 17.5913 18 16M6 14H42M6 14L10 6H38L42 14M18 16V14M18 16C18 17.5913 18.6321 19.1174 19.7574 20.2426C20.8826 21.3679 22.4087 22 24 22C25.5913 22 27.1174 21.3679 28.2426 20.2426C29.3679 19.1174 30 17.5913 30 16M30 16V14M30 16C30 17.5913 30.6321 19.1174 31.7574 20.2426C32.8826 21.3679 34.4087 22 36 22C37.5913 22 39.1174 21.3679 40.2426 20.2426C41.3679 19.1174 42 17.5913 42 16V14" stroke="#DC251D" stroke-width="2" stroke-linecap="square"/>
</svg>
