<svg width="24" height="24" viewBox="0 0 24 24" fill="none" xmlns="http://www.w3.org/2000/svg">
<path fill-rule="evenodd" clip-rule="evenodd" d="M1.69247 10.4849C8.12587 7.67071 12.4263 5.85177 14.5593 4.95945C20.683 2.41979 21.956 1.97363 22.7816 1.97363C22.9537 1.97363 23.3665 2.00795 23.6417 2.21387C23.8481 2.38547 23.9169 2.62571 23.9513 2.79731C23.9857 2.96891 24.0202 3.34642 23.9858 3.6553C23.6417 7.1216 22.2312 15.5986 21.4743 19.4767C21.1647 21.1241 20.5454 21.6732 19.9606 21.7418C18.6877 21.8448 17.69 20.8838 16.4514 20.0945C14.5249 18.8246 13.424 18.0353 11.5318 16.7998C9.36438 15.3583 10.7749 14.569 12.0134 13.2992C12.3231 12.956 17.9996 7.84231 18.1028 7.36184C18.1028 7.2932 18.1372 7.08728 17.9996 6.98432C17.862 6.88136 17.69 6.91568 17.5523 6.95C17.3459 6.98432 14.2496 9.0435 8.22908 13.0932C7.33459 13.711 6.54332 13.9855 5.82085 13.9855C5.02958 13.9855 3.51584 13.5394 2.38053 13.1619C1.0044 12.7157 -0.0964997 12.4755 0.0067099 11.7204C0.10992 11.3086 0.660371 10.8968 1.69247 10.4849Z" fill="white"/>
</svg>
