<svg width="48" height="48" viewBox="0 0 48 48" fill="none" xmlns="http://www.w3.org/2000/svg">
<path d="M31 30V31V30ZM20 30V29H19.5706L19.2749 29.3113L20 30ZM11.97 38.454L11.2449 37.7653L11.2449 37.7653L11.97 38.454ZM4.12399 34.384L5.10458 34.5801L5.10459 34.58L4.12399 34.384ZM7.39199 18.038L6.41143 17.8418L6.4114 17.842L7.39199 18.038ZM17.2 10L17.1998 11H17.2V10ZM36.14 38.5681L35.415 39.2569L35.4151 39.257L36.14 38.5681ZM43.99 34.5221L44.9717 34.3314L44.9716 34.3313L43.99 34.5221ZM41.7716 17.8673L41.5808 16.8857L39.6176 17.2673L39.8084 18.2489L41.7716 17.8673ZM17 18V17H15V18H17ZM15 22V23H17V22H15ZM14 19H13V21H14V19ZM18 21H19V19H18V21ZM28 19H27V21H28V19ZM32 21H33V19H32V21ZM31 10V11C33.3869 11 35.6761 11.9482 37.364 13.636L38.0711 12.9289L38.7782 12.2218C36.7153 10.1589 33.9174 9 31 9V10ZM38.0711 12.9289L37.364 13.636C39.0518 15.3239 40 17.6131 40 20H41H42C42 17.0826 40.8411 14.2847 38.7782 12.2218L38.0711 12.9289ZM41 20H40C40 22.3869 39.0518 24.6761 37.364 26.364L38.0711 27.0711L38.7782 27.7782C40.8411 25.7153 42 22.9174 42 20H41ZM38.0711 27.0711L37.364 26.364C35.6761 28.0518 33.3869 29 31 29V30V31C33.9174 31 36.7153 29.8411 38.7782 27.7782L38.0711 27.0711ZM31 30V29H20V30V31H31V30ZM20 30L19.2749 29.3113L11.2449 37.7653L11.97 38.454L12.695 39.1427L20.725 30.6887L20 30ZM11.97 38.454L11.2449 37.7653C10.7074 38.3313 10.0004 38.7072 9.23062 38.8364L9.39616 39.8226L9.5617 40.8088C10.7592 40.6078 11.8589 40.0231 12.6951 39.1427L11.97 38.454ZM9.39616 39.8226L9.23062 38.8364C8.46082 38.9656 7.66988 38.8412 6.97698 38.4817L6.51651 39.3694L6.05605 40.2571C7.13388 40.8162 8.36423 41.0098 9.5617 40.8088L9.39616 39.8226ZM6.51651 39.3694L6.97698 38.4817C6.28409 38.1223 5.72679 37.5474 5.38907 36.8437L4.48751 37.2763L3.58596 37.709C4.1113 38.8037 4.97821 39.698 6.05605 40.2571L6.51651 39.3694ZM4.48751 37.2763L5.38907 36.8437C5.05135 36.1399 4.9515 35.3455 5.10458 34.5801L4.12399 34.384L3.14341 34.1879C2.90529 35.3785 3.06061 36.6143 3.58596 37.709L4.48751 37.2763ZM4.12399 34.384L5.10459 34.58L8.37259 18.234L7.39199 18.038L6.4114 17.842L3.1434 34.188L4.12399 34.384ZM7.39199 18.038L8.37256 18.2342C8.78081 16.1938 9.88346 14.358 11.4929 13.039L10.859 12.2656L10.2251 11.4921C8.25809 13.1042 6.91041 15.348 6.41143 17.8418L7.39199 18.038ZM10.859 12.2656L11.4929 13.039C13.1022 11.72 15.1189 10.9995 17.1998 11L17.2 10L17.2002 9C14.657 8.9994 12.1922 9.88006 10.2251 11.4921L10.859 12.2656ZM28 30.0001L27.275 30.6889L35.415 39.2569L36.14 38.5681L36.865 37.8793L28.725 29.3113L28 30.0001ZM36.14 38.5681L35.4151 39.257C36.2497 40.1351 37.3465 40.7189 38.5409 40.9209L38.7076 39.9349L38.8743 38.9489C38.1064 38.819 37.4014 38.4437 36.8649 37.8792L36.14 38.5681ZM38.7076 39.9349L38.5409 40.9209C39.7354 41.1228 40.9632 40.932 42.04 40.377L41.5818 39.4881L41.1237 38.5992C40.4315 38.956 39.6422 39.0787 38.8743 38.9489L38.7076 39.9349ZM41.5818 39.4881L42.04 40.377C43.1168 39.8219 43.9846 38.9327 44.5132 37.8427L43.6134 37.4064L42.7136 36.97C42.3738 37.6708 41.8159 38.2424 41.1237 38.5992L41.5818 39.4881ZM43.6134 37.4064L44.5132 37.8427C45.0418 36.7527 45.2026 35.5206 44.9717 34.3314L43.99 34.5221L43.0084 34.7128C43.1568 35.4773 43.0534 36.2693 42.7136 36.97L43.6134 37.4064ZM43.99 34.5221L44.9716 34.3313L41.7716 17.8673L40.79 18.0581L39.8084 18.2489L43.0084 34.7129L43.99 34.5221ZM16 18H15V22H16H17V18H16ZM14 20V21H18V20V19H14V20ZM28 20V21H32V20V19H28V20ZM17.2 10V11H31V10V9H17.2V10Z" fill="white"/>
<path d="M16 18V22M14 20H18M28 20H32" stroke="#DC251D" stroke-width="2" stroke-linecap="square"/>
</svg>
